<svg xmlns="http://www.w3.org/2000/svg" viewBox="0 0 480 320" role="img" aria-label="City corner station photo stand-in">
  <defs>
    <linearGradient id="streetSky" x1="0" y1="0" x2="0" y2="1">
      <stop offset="0%" stop-color="#a4c4da"/>
      <stop offset="100%" stop-color="#d9dcc6"/>
    </linearGradient>
  </defs>
  <rect width="480" height="320" fill="url(#streetSky)"/>
  <rect y="214" width="480" height="106" fill="#727c73"/>
  <rect x="24" y="102" width="100" height="122" fill="#738495" opacity="0.7"/>
  <rect x="356" y="90" width="102" height="132" fill="#7f8f98" opacity="0.72"/>
  <rect x="177" y="107" width="126" height="166" rx="10" fill="#bf7a48"/>
  <path d="M167 111 L240 70 L313 111 Z" fill="#9a6037"/>
  <rect x="195" y="130" width="90" height="102" rx="8" fill="#f4e6ca" stroke="#7f4d2c" stroke-width="7"/>
  <rect x="203" y="141" width="12" height="78" rx="2" fill="#bf4b52"/>
  <rect x="217" y="141" width="11" height="78" rx="2" fill="#4b7ba4"/>
  <rect x="230" y="141" width="10" height="78" rx="2" fill="#4f8947"/>
  <rect x="242" y="141" width="13" height="78" rx="2" fill="#d6a243"/>
  <rect x="257" y="141" width="12" height="78" rx="2" fill="#85609a"/>
  <line x1="0" y1="256" x2="480" y2="256" stroke="#d7dcc8" stroke-width="4" stroke-dasharray="20 14" opacity="0.65"/>
</svg>
